<?xml version="1.0" encoding="UTF-8" standalone="no"?>
<!DOCTYPE svg PUBLIC "-//W3C//DTD SVG 1.1//EN"
 "http://www.w3.org/Graphics/SVG/1.1/DTD/svg11.dtd">
<!-- Generated by graphviz version 2.48.0 (0)
 -->
<!-- Pages: 1 -->
<svg width="1449pt" height="505pt"
 viewBox="0.00 0.00 1449.00 505.17" xmlns="http://www.w3.org/2000/svg" xmlns:xlink="http://www.w3.org/1999/xlink">
<g id="graph0" class="graph" transform="scale(1 1) rotate(0) translate(4 501.17)">
<polygon fill="white" stroke="transparent" points="-4,4 -4,-501.17 1445,-501.17 1445,4 -4,4"/>
<g id="clust1" class="cluster">
<title>cluster_2</title>
<polygon fill="none" stroke="black" points="467,-8 467,-308.43 1433,-308.43 1433,-8 467,-8"/>
</g>
<g id="clust2" class="cluster">
<title>cluster_1</title>
<polygon fill="none" stroke="black" points="728,-329.43 728,-399.17 1416,-399.17 1416,-329.43 728,-329.43"/>
</g>
<g id="clust3" class="cluster">
<title>cluster_0</title>
<polygon fill="lightgreen" stroke="black" points="8,-420.17 8,-489.17 878,-489.17 878,-420.17 8,-420.17"/>
</g>
<!-- cluster0_anchor -->
<g id="node1" class="node">
<title>cluster0_anchor</title>
</g>
<!-- cluster1_anchor -->
<g id="node2" class="node">
<title>cluster1_anchor</title>
</g>
<!-- cluster0_anchor&#45;&gt;cluster1_anchor -->
<!-- cluster2_anchor -->
<g id="node3" class="node">
<title>cluster2_anchor</title>
</g>
<!-- cluster1_anchor&#45;&gt;cluster2_anchor -->
<!-- repo_nvidia -->
<g id="node4" class="node">
<title>repo_nvidia</title>
<polygon fill="aqua" stroke="black" points="1061,-280.96 1058,-284.96 1037,-284.96 1034,-280.96 881,-280.96 881,-244.96 1061,-244.96 1061,-280.96"/>
<text text-anchor="middle" x="971" y="-259.26" font-family="Times,serif" font-size="14.00">NVIDIA GFX Repository</text>
</g>
<!-- open_meta -->
<g id="node5" class="node">
<title>open_meta</title>
<ellipse fill="red" stroke="black" cx="1252" cy="-262.96" rx="173.48" ry="37.45"/>
<text text-anchor="middle" x="1252" y="-274.26" font-family="Times,serif" font-size="14.00">nvidia&#45;open&#45;driver&#45;G07&#45;signed&#45;kmp&#45;meta</text>
<text text-anchor="middle" x="1252" y="-259.26" font-family="Times,serif" font-size="14.00">(in&#45;sync)</text>
<text text-anchor="middle" x="1252" y="-244.26" font-family="Times,serif" font-size="14.00">[via HW Supplements]</text>
</g>
<!-- userspace_meta_insync -->
<g id="node7" class="node">
<title>userspace_meta_insync</title>
<ellipse fill="lightgreen" stroke="black" cx="1252" cy="-147.61" rx="118.17" ry="26.74"/>
<text text-anchor="middle" x="1252" y="-151.41" font-family="Times,serif" font-size="14.00">nvidia&#45;userspace&#45;meta&#45;G07</text>
<text text-anchor="middle" x="1252" y="-136.41" font-family="Times,serif" font-size="14.00">(in&#45;sync)</text>
</g>
<!-- open_meta&#45;&gt;userspace_meta_insync -->
<g id="edge4" class="edge">
<title>open_meta&#45;&gt;userspace_meta_insync</title>
<path fill="none" stroke="black" d="M1252,-225.47C1252,-212.4 1252,-197.68 1252,-184.64"/>
<polygon fill="black" stroke="black" points="1255.5,-184.61 1252,-174.61 1248.5,-184.61 1255.5,-184.61"/>
</g>
<!-- open -->
<g id="node13" class="node">
<title>open</title>
<ellipse fill="yellow" stroke="black" cx="1247" cy="-364.3" rx="160.53" ry="26.74"/>
<text text-anchor="middle" x="1247" y="-368.1" font-family="Times,serif" font-size="14.00">nvidia&#45;open&#45;driver&#45;G07&#45;kmp&#45;&lt;flavor&gt;</text>
<text text-anchor="middle" x="1247" y="-353.1" font-family="Times,serif" font-size="14.00">(in&#45;sync)</text>
</g>
<!-- open_meta&#45;&gt;open -->
<g id="edge3" class="edge">
<title>open_meta&#45;&gt;open</title>
<path fill="none" stroke="black" d="M1250.15,-300.72C1249.72,-309.33 1249.25,-318.5 1248.82,-327.09"/>
<polygon fill="black" stroke="black" points="1245.32,-327.04 1248.31,-337.2 1252.31,-327.39 1245.32,-327.04"/>
</g>
<!-- userspace_meta_latest -->
<g id="node6" class="node">
<title>userspace_meta_latest</title>
<ellipse fill="lightgreen" stroke="black" cx="593" cy="-262.96" rx="118.17" ry="26.74"/>
<text text-anchor="middle" x="593" y="-266.76" font-family="Times,serif" font-size="14.00">nvidia&#45;userspace&#45;meta&#45;G07</text>
<text text-anchor="middle" x="593" y="-251.76" font-family="Times,serif" font-size="14.00">(latest)</text>
</g>
<!-- compute_latest -->
<g id="node8" class="node">
<title>compute_latest</title>
<ellipse fill="lightblue" stroke="black" cx="774" cy="-147.61" rx="111.03" ry="26.74"/>
<text text-anchor="middle" x="774" y="-151.41" font-family="Times,serif" font-size="14.00">nvidia&#45;compute&#45;utils&#45;G07</text>
<text text-anchor="middle" x="774" y="-136.41" font-family="Times,serif" font-size="14.00">(latest)</text>
</g>
<!-- userspace_meta_latest&#45;&gt;compute_latest -->
<g id="edge5" class="edge">
<title>userspace_meta_latest&#45;&gt;compute_latest</title>
<path fill="none" stroke="black" d="M632.27,-237.36C659.88,-220.07 696.97,-196.85 726.29,-178.49"/>
<polygon fill="black" stroke="black" points="728.5,-181.24 735.11,-172.96 724.78,-175.3 728.5,-181.24"/>
</g>
<!-- video_latest -->
<g id="node10" class="node">
<title>video_latest</title>
<ellipse fill="lightblue" stroke="black" cx="565" cy="-147.61" rx="79.81" ry="26.74"/>
<text text-anchor="middle" x="565" y="-151.41" font-family="Times,serif" font-size="14.00">nvidia&#45;video&#45;G07</text>
<text text-anchor="middle" x="565" y="-136.41" font-family="Times,serif" font-size="14.00">(latest)</text>
</g>
<!-- userspace_meta_latest&#45;&gt;video_latest -->
<g id="edge6" class="edge">
<title>userspace_meta_latest&#45;&gt;video_latest</title>
<path fill="none" stroke="blue" d="M586.58,-235.95C582.81,-220.69 577.99,-201.18 573.86,-184.47"/>
<polygon fill="blue" stroke="blue" points="577.19,-183.36 571.39,-174.49 570.39,-185.04 577.19,-183.36"/>
<text text-anchor="middle" x="608" y="-196.28" font-family="Times,serif" font-size="14.00" fill="blue">if libglvnd</text>
</g>
<!-- compute_insync -->
<g id="node9" class="node">
<title>compute_insync</title>
<ellipse fill="lightblue" stroke="black" cx="1112" cy="-42.87" rx="111.03" ry="26.74"/>
<text text-anchor="middle" x="1112" y="-46.67" font-family="Times,serif" font-size="14.00">nvidia&#45;compute&#45;utils&#45;G07</text>
<text text-anchor="middle" x="1112" y="-31.67" font-family="Times,serif" font-size="14.00">(in&#45;sync)</text>
</g>
<!-- userspace_meta_insync&#45;&gt;compute_insync -->
<g id="edge7" class="edge">
<title>userspace_meta_insync&#45;&gt;compute_insync</title>
<path fill="none" stroke="black" d="M1218.11,-121.74C1198.76,-107.54 1174.35,-89.63 1153.82,-74.56"/>
<polygon fill="black" stroke="black" points="1155.71,-71.61 1145.58,-68.51 1151.57,-77.25 1155.71,-71.61"/>
</g>
<!-- video_insync -->
<g id="node11" class="node">
<title>video_insync</title>
<ellipse fill="lightblue" stroke="black" cx="1321" cy="-42.87" rx="79.81" ry="26.74"/>
<text text-anchor="middle" x="1321" y="-46.67" font-family="Times,serif" font-size="14.00">nvidia&#45;video&#45;G07</text>
<text text-anchor="middle" x="1321" y="-31.67" font-family="Times,serif" font-size="14.00">(in&#45;sync)</text>
</g>
<!-- userspace_meta_insync&#45;&gt;video_insync -->
<g id="edge8" class="edge">
<title>userspace_meta_insync&#45;&gt;video_insync</title>
<path fill="none" stroke="blue" d="M1269.23,-120.95C1278.03,-107.86 1288.84,-91.76 1298.3,-77.67"/>
<polygon fill="blue" stroke="blue" points="1301.32,-79.46 1303.99,-69.2 1295.51,-75.55 1301.32,-79.46"/>
<text text-anchor="middle" x="1319" y="-91.54" font-family="Times,serif" font-size="14.00" fill="blue">if libglvnd</text>
</g>
<!-- repo_suse -->
<g id="node12" class="node">
<title>repo_suse</title>
<polygon fill="aqua" stroke="black" points="1068,-382.3 1065,-386.3 1044,-386.3 1041,-382.3 888,-382.3 888,-346.3 1068,-346.3 1068,-382.3"/>
<text text-anchor="middle" x="978" y="-360.6" font-family="Times,serif" font-size="14.00">SUSE Product</text>
</g>
<!-- repo_install -->
<g id="node14" class="node">
<title>repo_install</title>
<polygon fill="green" stroke="black" points="718,-472.67 538,-472.67 538,-468.67 534,-468.67 534,-464.67 538,-464.67 538,-444.67 534,-444.67 534,-440.67 538,-440.67 538,-436.67 718,-436.67 718,-472.67"/>
<polyline fill="none" stroke="black" points="538,-468.67 542,-468.67 542,-464.67 538,-464.67 "/>
<polyline fill="none" stroke="black" points="538,-444.67 542,-444.67 542,-440.67 538,-440.67 "/>
<text text-anchor="middle" x="628" y="-450.97" font-family="Times,serif" font-size="14.00">Installation</text>
</g>
<!-- command1 -->
<g id="node15" class="node">
<title>command1</title>
<text text-anchor="middle" x="268" y="-465.97" font-family="Times,serif" font-size="14.00">zypper ar &lt;NVIDIA GFX Repository&gt; &#160;nvidia&#45;gfx</text>
<text text-anchor="middle" x="268" y="-450.97" font-family="Times,serif" font-size="14.00">zypper ref</text>
<text text-anchor="middle" x="268" y="-435.97" font-family="Times,serif" font-size="14.00">zypper inr &#45;&#45;no&#45;recommends</text>
</g>
</g>
</svg>
