<?xml version="1.0" encoding="UTF-8" standalone="no"?>
<!DOCTYPE svg PUBLIC "-//W3C//DTD SVG 1.1//EN"
 "http://www.w3.org/Graphics/SVG/1.1/DTD/svg11.dtd">
<!-- Generated by graphviz version 2.48.0 (0)
 -->
<!-- Pages: 1 -->
<svg width="1514pt" height="491pt"
 viewBox="0.00 0.00 1514.00 491.17" xmlns="http://www.w3.org/2000/svg" xmlns:xlink="http://www.w3.org/1999/xlink">
<g id="graph0" class="graph" transform="scale(1 1) rotate(0) translate(4 487.17)">
<polygon fill="white" stroke="transparent" points="-4,4 -4,-487.17 1510,-487.17 1510,4 -4,4"/>
<g id="clust1" class="cluster">
<title>cluster_2</title>
<polygon fill="none" stroke="black" points="520,-8 520,-294.43 1498,-294.43 1498,-8 520,-8"/>
</g>
<g id="clust2" class="cluster">
<title>cluster_1</title>
<polygon fill="none" stroke="black" points="728,-315.43 728,-385.17 1416,-385.17 1416,-315.43 728,-315.43"/>
</g>
<g id="clust3" class="cluster">
<title>cluster_0</title>
<polygon fill="lightgreen" stroke="black" points="8,-406.17 8,-475.17 878,-475.17 878,-406.17 8,-406.17"/>
</g>
<!-- cluster0_anchor -->
<g id="node1" class="node">
<title>cluster0_anchor</title>
</g>
<!-- cluster1_anchor -->
<g id="node2" class="node">
<title>cluster1_anchor</title>
</g>
<!-- cluster0_anchor&#45;&gt;cluster1_anchor -->
<!-- cluster2_anchor -->
<g id="node3" class="node">
<title>cluster2_anchor</title>
</g>
<!-- cluster1_anchor&#45;&gt;cluster2_anchor -->
<!-- repo_nvidia -->
<g id="node4" class="node">
<title>repo_nvidia</title>
<polygon fill="aqua" stroke="black" points="1126,-266.96 1123,-270.96 1102,-270.96 1099,-266.96 946,-266.96 946,-230.96 1126,-230.96 1126,-266.96"/>
<text text-anchor="middle" x="1036" y="-245.26" font-family="Times,serif" font-size="14.00">NVIDIA GFX Repository</text>
</g>
<!-- proprietary_meta -->
<g id="node5" class="node">
<title>proprietary_meta</title>
<ellipse fill="red" stroke="black" cx="804" cy="-248.96" rx="123.99" ry="37.45"/>
<text text-anchor="middle" x="804" y="-260.26" font-family="Times,serif" font-size="14.00">nvidia&#45;driver&#45;G06&#45;kmp&#45;meta</text>
<text text-anchor="middle" x="804" y="-245.26" font-family="Times,serif" font-size="14.00">(latest)</text>
<text text-anchor="middle" x="804" y="-230.26" font-family="Times,serif" font-size="14.00">[via HW Supplements]</text>
</g>
<!-- proprietary -->
<g id="node7" class="node">
<title>proprietary</title>
<ellipse fill="yellow" stroke="black" cx="671" cy="-147.61" rx="138.69" ry="26.74"/>
<text text-anchor="middle" x="671" y="-151.41" font-family="Times,serif" font-size="14.00">nvidia&#45;driver&#45;G06&#45;kmp&#45;&lt;flavor&gt;</text>
<text text-anchor="middle" x="671" y="-136.41" font-family="Times,serif" font-size="14.00">(latest)</text>
</g>
<!-- proprietary_meta&#45;&gt;proprietary -->
<g id="edge3" class="edge">
<title>proprietary_meta&#45;&gt;proprietary</title>
<path fill="none" stroke="black" d="M758.6,-214.05C743.88,-203.05 727.62,-190.91 713.15,-180.09"/>
<polygon fill="black" stroke="black" points="714.96,-177.08 704.86,-173.9 710.78,-182.69 714.96,-177.08"/>
</g>
<!-- userspace_meta_latest -->
<g id="node8" class="node">
<title>userspace_meta_latest</title>
<ellipse fill="lightgreen" stroke="black" cx="946" cy="-147.61" rx="118.17" ry="26.74"/>
<text text-anchor="middle" x="946" y="-151.41" font-family="Times,serif" font-size="14.00">nvidia&#45;userspace&#45;meta&#45;G06</text>
<text text-anchor="middle" x="946" y="-136.41" font-family="Times,serif" font-size="14.00">(latest)</text>
</g>
<!-- proprietary_meta&#45;&gt;userspace_meta_latest -->
<g id="edge4" class="edge">
<title>proprietary_meta&#45;&gt;userspace_meta_latest</title>
<path fill="none" stroke="black" d="M852.07,-214.32C868.23,-203.02 886.16,-190.47 901.99,-179.4"/>
<polygon fill="black" stroke="black" points="904.36,-182.02 910.55,-173.42 900.34,-176.28 904.36,-182.02"/>
</g>
<!-- open_meta -->
<g id="node6" class="node">
<title>open_meta</title>
<ellipse fill="red" stroke="black" cx="1317" cy="-248.96" rx="173.48" ry="37.45"/>
<text text-anchor="middle" x="1317" y="-260.26" font-family="Times,serif" font-size="14.00">nvidia&#45;open&#45;driver&#45;G06&#45;signed&#45;kmp&#45;meta</text>
<text text-anchor="middle" x="1317" y="-245.26" font-family="Times,serif" font-size="14.00">(in&#45;sync)</text>
<text text-anchor="middle" x="1317" y="-230.26" font-family="Times,serif" font-size="14.00">[via HW Supplements]</text>
</g>
<!-- userspace_meta_insync -->
<g id="node9" class="node">
<title>userspace_meta_insync</title>
<ellipse fill="lightgreen" stroke="black" cx="1317" cy="-147.61" rx="118.17" ry="26.74"/>
<text text-anchor="middle" x="1317" y="-151.41" font-family="Times,serif" font-size="14.00">nvidia&#45;userspace&#45;meta&#45;G06</text>
<text text-anchor="middle" x="1317" y="-136.41" font-family="Times,serif" font-size="14.00">(in&#45;sync)</text>
</g>
<!-- open_meta&#45;&gt;userspace_meta_insync -->
<g id="edge6" class="edge">
<title>open_meta&#45;&gt;userspace_meta_insync</title>
<path fill="none" stroke="black" d="M1317,-211.25C1317,-202.6 1317,-193.39 1317,-184.77"/>
<polygon fill="black" stroke="black" points="1320.5,-184.63 1317,-174.63 1313.5,-184.63 1320.5,-184.63"/>
</g>
<!-- open -->
<g id="node15" class="node">
<title>open</title>
<ellipse fill="yellow" stroke="black" cx="1247" cy="-350.3" rx="160.53" ry="26.74"/>
<text text-anchor="middle" x="1247" y="-354.1" font-family="Times,serif" font-size="14.00">nvidia&#45;open&#45;driver&#45;G06&#45;kmp&#45;&lt;flavor&gt;</text>
<text text-anchor="middle" x="1247" y="-339.1" font-family="Times,serif" font-size="14.00">(in&#45;sync)</text>
</g>
<!-- open_meta&#45;&gt;open -->
<g id="edge5" class="edge">
<title>open_meta&#45;&gt;open</title>
<path fill="none" stroke="black" d="M1291.5,-286.14C1284.83,-295.61 1277.67,-305.78 1271.07,-315.14"/>
<polygon fill="black" stroke="black" points="1268.11,-313.27 1265.21,-323.46 1273.83,-317.3 1268.11,-313.27"/>
</g>
<!-- compute_latest -->
<g id="node10" class="node">
<title>compute_latest</title>
<ellipse fill="lightblue" stroke="black" cx="752" cy="-42.87" rx="111.03" ry="26.74"/>
<text text-anchor="middle" x="752" y="-46.67" font-family="Times,serif" font-size="14.00">nvidia&#45;compute&#45;utils&#45;G06</text>
<text text-anchor="middle" x="752" y="-31.67" font-family="Times,serif" font-size="14.00">(latest)</text>
</g>
<!-- userspace_meta_latest&#45;&gt;compute_latest -->
<g id="edge7" class="edge">
<title>userspace_meta_latest&#45;&gt;compute_latest</title>
<path fill="none" stroke="black" d="M900.52,-122.52C872.2,-107.53 835.63,-88.16 805.87,-72.4"/>
<polygon fill="black" stroke="black" points="807.34,-69.22 796.86,-67.63 804.06,-75.4 807.34,-69.22"/>
</g>
<!-- video_latest -->
<g id="node12" class="node">
<title>video_latest</title>
<ellipse fill="lightblue" stroke="black" cx="961" cy="-42.87" rx="79.81" ry="26.74"/>
<text text-anchor="middle" x="961" y="-46.67" font-family="Times,serif" font-size="14.00">nvidia&#45;video&#45;G06</text>
<text text-anchor="middle" x="961" y="-31.67" font-family="Times,serif" font-size="14.00">(latest)</text>
</g>
<!-- userspace_meta_latest&#45;&gt;video_latest -->
<g id="edge8" class="edge">
<title>userspace_meta_latest&#45;&gt;video_latest</title>
<path fill="none" stroke="blue" d="M949.79,-120.68C951.6,-108.27 953.8,-93.21 955.77,-79.72"/>
<polygon fill="blue" stroke="blue" points="959.23,-80.19 957.22,-69.79 952.31,-79.18 959.23,-80.19"/>
<text text-anchor="middle" x="983" y="-91.54" font-family="Times,serif" font-size="14.00" fill="blue">if libglvnd</text>
</g>
<!-- compute_insync -->
<g id="node11" class="node">
<title>compute_insync</title>
<ellipse fill="lightblue" stroke="black" cx="1176" cy="-42.87" rx="111.03" ry="26.74"/>
<text text-anchor="middle" x="1176" y="-46.67" font-family="Times,serif" font-size="14.00">nvidia&#45;compute&#45;utils&#45;G06</text>
<text text-anchor="middle" x="1176" y="-31.67" font-family="Times,serif" font-size="14.00">(in&#45;sync)</text>
</g>
<!-- userspace_meta_insync&#45;&gt;compute_insync -->
<g id="edge9" class="edge">
<title>userspace_meta_insync&#45;&gt;compute_insync</title>
<path fill="none" stroke="black" d="M1282.87,-121.74C1263.38,-107.54 1238.8,-89.63 1218.12,-74.56"/>
<polygon fill="black" stroke="black" points="1219.96,-71.57 1209.82,-68.51 1215.84,-77.23 1219.96,-71.57"/>
</g>
<!-- video_insync -->
<g id="node13" class="node">
<title>video_insync</title>
<ellipse fill="lightblue" stroke="black" cx="1385" cy="-42.87" rx="79.81" ry="26.74"/>
<text text-anchor="middle" x="1385" y="-46.67" font-family="Times,serif" font-size="14.00">nvidia&#45;video&#45;G06</text>
<text text-anchor="middle" x="1385" y="-31.67" font-family="Times,serif" font-size="14.00">(in&#45;sync)</text>
</g>
<!-- userspace_meta_insync&#45;&gt;video_insync -->
<g id="edge10" class="edge">
<title>userspace_meta_insync&#45;&gt;video_insync</title>
<path fill="none" stroke="blue" d="M1333.98,-120.95C1342.65,-107.86 1353.3,-91.76 1362.63,-77.67"/>
<polygon fill="blue" stroke="blue" points="1365.63,-79.47 1368.23,-69.2 1359.79,-75.61 1365.63,-79.47"/>
<text text-anchor="middle" x="1384" y="-91.54" font-family="Times,serif" font-size="14.00" fill="blue">if libglvnd</text>
</g>
<!-- repo_suse -->
<g id="node14" class="node">
<title>repo_suse</title>
<polygon fill="aqua" stroke="black" points="1068,-368.3 1065,-372.3 1044,-372.3 1041,-368.3 888,-368.3 888,-332.3 1068,-332.3 1068,-368.3"/>
<text text-anchor="middle" x="978" y="-346.6" font-family="Times,serif" font-size="14.00">SUSE Product</text>
</g>
<!-- repo_install -->
<g id="node16" class="node">
<title>repo_install</title>
<polygon fill="green" stroke="black" points="718,-458.67 538,-458.67 538,-454.67 534,-454.67 534,-450.67 538,-450.67 538,-430.67 534,-430.67 534,-426.67 538,-426.67 538,-422.67 718,-422.67 718,-458.67"/>
<polyline fill="none" stroke="black" points="538,-454.67 542,-454.67 542,-450.67 538,-450.67 "/>
<polyline fill="none" stroke="black" points="538,-430.67 542,-430.67 542,-426.67 538,-426.67 "/>
<text text-anchor="middle" x="628" y="-436.97" font-family="Times,serif" font-size="14.00">Installation</text>
</g>
<!-- command1 -->
<g id="node17" class="node">
<title>command1</title>
<text text-anchor="middle" x="268" y="-451.97" font-family="Times,serif" font-size="14.00">zypper ar &lt;NVIDIA GFX Repository&gt; &#160;nvidia&#45;gfx</text>
<text text-anchor="middle" x="268" y="-436.97" font-family="Times,serif" font-size="14.00">zypper ref</text>
<text text-anchor="middle" x="268" y="-421.97" font-family="Times,serif" font-size="14.00">zypper inr &#45;&#45;no&#45;recommends</text>
</g>
</g>
</svg>
