<?xml version="1.0" encoding="UTF-8" standalone="no"?>
<!DOCTYPE svg PUBLIC "-//W3C//DTD SVG 1.1//EN"
 "http://www.w3.org/Graphics/SVG/1.1/DTD/svg11.dtd">
<!-- Generated by graphviz version 2.48.0 (0)
 -->
<!-- Pages: 1 -->
<svg width="946pt" height="449pt"
 viewBox="0.00 0.00 946.00 449.48" xmlns="http://www.w3.org/2000/svg" xmlns:xlink="http://www.w3.org/1999/xlink">
<g id="graph0" class="graph" transform="scale(1 1) rotate(0) translate(4 445.48)">
<polygon fill="white" stroke="transparent" points="-4,4 -4,-445.48 942,-445.48 942,4 -4,4"/>
<g id="clust1" class="cluster">
<title>cluster_0</title>
<polygon fill="none" stroke="black" points="8,-180.61 8,-425.98 276,-425.98 276,-180.61 8,-180.61"/>
</g>
<g id="clust2" class="cluster">
<title>cluster_1</title>
<polygon fill="none" stroke="black" points="284,-171.74 284,-241.48 704,-241.48 704,-171.74 284,-171.74"/>
</g>
<g id="clust3" class="cluster">
<title>cluster_2</title>
<polygon fill="none" stroke="black" points="277,-8 277,-150.74 711,-150.74 711,-8 277,-8"/>
</g>
<g id="clust4" class="cluster">
<title>cluster_3</title>
<polygon fill="lightgreen" stroke="black" points="284,-349.48 284,-433.48 930,-433.48 930,-349.48 284,-349.48"/>
</g>
<!-- repo_nvidia_cuda -->
<g id="node1" class="node">
<title>repo_nvidia_cuda</title>
<polygon fill="aqua" stroke="black" points="268,-417.98 265,-421.98 244,-421.98 241,-417.98 88,-417.98 88,-364.98 268,-364.98 268,-417.98"/>
<text text-anchor="middle" x="178" y="-402.78" font-family="Times,serif" font-size="14.00">CUDA packages</text>
<text text-anchor="middle" x="178" y="-387.78" font-family="Times,serif" font-size="14.00">NVIDIA</text>
<text text-anchor="middle" x="178" y="-372.78" font-family="Times,serif" font-size="14.00"> Prio 100</text>
</g>
<!-- cuda -->
<g id="node2" class="node">
<title>cuda</title>
<ellipse fill="red" stroke="black" cx="43" cy="-391.48" rx="27.1" ry="18"/>
<text text-anchor="middle" x="43" y="-387.78" font-family="Times,serif" font-size="14.00">cuda</text>
</g>
<!-- cuda_runtime -->
<g id="node3" class="node">
<title>cuda_runtime</title>
<ellipse fill="red" stroke="black" cx="120" cy="-302.48" rx="58.49" ry="18"/>
<text text-anchor="middle" x="120" y="-298.78" font-family="Times,serif" font-size="14.00">cuda&#45;runtime</text>
</g>
<!-- cuda&#45;&gt;cuda_runtime -->
<g id="edge1" class="edge">
<title>cuda&#45;&gt;cuda_runtime</title>
<path fill="none" stroke="black" d="M56.31,-375.27C63.09,-367.53 71.47,-357.99 79,-349.48 85.22,-342.45 91.98,-334.84 98.2,-327.88"/>
<polygon fill="black" stroke="black" points="101.12,-329.85 105.17,-320.06 95.9,-325.19 101.12,-329.85"/>
</g>
<!-- cuda_other_packages -->
<g id="node4" class="node">
<title>cuda_other_packages</title>
<ellipse fill="lightblue" stroke="black" cx="111" cy="-206.61" rx="87.18" ry="18"/>
<text text-anchor="middle" x="111" y="-202.91" font-family="Times,serif" font-size="14.00">Other Cuda Packages</text>
</g>
<!-- cuda&#45;&gt;cuda_other_packages -->
<g id="edge2" class="edge">
<title>cuda&#45;&gt;cuda_other_packages</title>
<path fill="none" stroke="black" d="M41.81,-373.31C40.94,-351.78 41.5,-314.12 53,-284.48 60.53,-265.07 74.47,-246.35 86.79,-232.24"/>
<polygon fill="black" stroke="black" points="89.68,-234.26 93.8,-224.5 84.49,-229.57 89.68,-234.26"/>
</g>
<!-- cuda_runtime&#45;&gt;cuda_other_packages -->
<g id="edge4" class="edge">
<title>cuda_runtime&#45;&gt;cuda_other_packages</title>
<path fill="none" stroke="black" d="M118.35,-284.26C117.03,-270.5 115.16,-250.95 113.63,-235.04"/>
<polygon fill="black" stroke="black" points="117.08,-234.34 112.64,-224.72 110.11,-235.01 117.08,-234.34"/>
</g>
<!-- nvidia_computeG06 -->
<g id="node6" class="node">
<title>nvidia_computeG06</title>
<ellipse fill="yellow" stroke="black" cx="395" cy="-206.61" rx="102.56" ry="26.74"/>
<text text-anchor="middle" x="395" y="-210.41" font-family="Times,serif" font-size="14.00">nvidia&#45;computeG06</text>
<text text-anchor="middle" x="395" y="-195.41" font-family="Times,serif" font-size="14.00">(Provides:cuda&#45;drivers)</text>
</g>
<!-- cuda_runtime&#45;&gt;nvidia_computeG06 -->
<g id="edge3" class="edge">
<title>cuda_runtime&#45;&gt;nvidia_computeG06</title>
<path fill="none" stroke="blue" d="M157.66,-288.62C200.52,-273.99 271.46,-249.78 324.64,-231.63"/>
<polygon fill="blue" stroke="blue" points="326.02,-234.85 334.35,-228.31 323.76,-228.23 326.02,-234.85"/>
<text text-anchor="middle" x="327" y="-255.28" font-family="Times,serif" font-size="14.00" fill="blue">Requires: cuda&#45;drivers</text>
</g>
<!-- repo_nvidia_gfx -->
<g id="node5" class="node">
<title>repo_nvidia_gfx</title>
<polygon fill="aqua" stroke="black" points="696,-233.11 693,-237.11 672,-237.11 669,-233.11 516,-233.11 516,-180.11 696,-180.11 696,-233.11"/>
<text text-anchor="middle" x="606" y="-217.91" font-family="Times,serif" font-size="14.00">Proprietary:X11:Drivers</text>
<text text-anchor="middle" x="606" y="-202.91" font-family="Times,serif" font-size="14.00">NVIDIA</text>
<text text-anchor="middle" x="606" y="-187.91" font-family="Times,serif" font-size="14.00"> Prio 99</text>
</g>
<!-- nvidia_open_gfxG06_kmp -->
<g id="node8" class="node">
<title>nvidia_open_gfxG06_kmp</title>
<ellipse fill="yellow" stroke="black" cx="395" cy="-115.87" rx="109.7" ry="26.74"/>
<text text-anchor="middle" x="395" y="-119.67" font-family="Times,serif" font-size="14.00">nvidia&#45;open&#45;gfxG06&#45;kmp</text>
<text text-anchor="middle" x="395" y="-104.67" font-family="Times,serif" font-size="14.00">(PCI Supplements)</text>
</g>
<!-- nvidia_computeG06&#45;&gt;nvidia_open_gfxG06_kmp -->
<g id="edge5" class="edge">
<title>nvidia_computeG06&#45;&gt;nvidia_open_gfxG06_kmp</title>
<path fill="none" stroke="black" d="M395,-179.47C395,-171.16 395,-161.82 395,-152.95"/>
<polygon fill="black" stroke="black" points="398.5,-152.83 395,-142.83 391.5,-152.83 398.5,-152.83"/>
</g>
<!-- repo_obs -->
<g id="node7" class="node">
<title>repo_obs</title>
<polygon fill="aqua" stroke="black" points="703,-142.37 700,-146.37 679,-146.37 676,-142.37 523,-142.37 523,-89.37 703,-89.37 703,-142.37"/>
<text text-anchor="middle" x="613" y="-127.17" font-family="Times,serif" font-size="14.00">X11:Drivers:Video</text>
<text text-anchor="middle" x="613" y="-112.17" font-family="Times,serif" font-size="14.00"> openSUSE Build Service</text>
<text text-anchor="middle" x="613" y="-97.17" font-family="Times,serif" font-size="14.00"> Prio 90</text>
</g>
<!-- kernel_firmware_nvidia_gsp -->
<g id="node9" class="node">
<title>kernel_firmware_nvidia_gsp</title>
<ellipse fill="yellow" stroke="black" cx="395" cy="-34" rx="108.58" ry="18"/>
<text text-anchor="middle" x="395" y="-30.3" font-family="Times,serif" font-size="14.00">kernel&#45;firmware&#45;nvidia&#45;gsp</text>
</g>
<!-- nvidia_open_gfxG06_kmp&#45;&gt;kernel_firmware_nvidia_gsp -->
<g id="edge6" class="edge">
<title>nvidia_open_gfxG06_kmp&#45;&gt;kernel_firmware_nvidia_gsp</title>
<path fill="none" stroke="black" d="M395,-88.72C395,-80.27 395,-70.89 395,-62.36"/>
<polygon fill="black" stroke="black" points="398.5,-62.15 395,-52.15 391.5,-62.15 398.5,-62.15"/>
</g>
<!-- repo_install -->
<g id="node10" class="node">
<title>repo_install</title>
<polygon fill="green" stroke="black" points="922,-409.48 814,-409.48 814,-405.48 810,-405.48 810,-401.48 814,-401.48 814,-381.48 810,-381.48 810,-377.48 814,-377.48 814,-373.48 922,-373.48 922,-409.48"/>
<polyline fill="none" stroke="black" points="814,-405.48 818,-405.48 818,-401.48 814,-401.48 "/>
<polyline fill="none" stroke="black" points="814,-381.48 818,-381.48 818,-377.48 814,-377.48 "/>
<text text-anchor="middle" x="868" y="-387.78" font-family="Times,serif" font-size="14.00">Installation</text>
</g>
<!-- command1 -->
<g id="node11" class="node">
<title>command1</title>
<text text-anchor="middle" x="544" y="-410.28" font-family="Times,serif" font-size="14.00">zypper ar &#45;p 90 &lt;X11:Drivers:Video&gt; X11:Drivers:Video</text>
<text text-anchor="middle" x="544" y="-395.28" font-family="Times,serif" font-size="14.00">zypper ar &#45;p 99 &lt;Proprietary:X11:Drivers&gt; Proprietary:X11:Drivers</text>
<text text-anchor="middle" x="544" y="-380.28" font-family="Times,serif" font-size="14.00">zypper ar &#45;p 100 &lt;CUDA packages&gt; CUDA</text>
<text text-anchor="middle" x="544" y="-365.28" font-family="Times,serif" font-size="14.00">zypper in cuda&#45;11&#45;7</text>
</g>
</g>
</svg>
