<?xml version="1.0" encoding="UTF-8" standalone="no"?>
<!DOCTYPE svg PUBLIC "-//W3C//DTD SVG 1.1//EN"
 "http://www.w3.org/Graphics/SVG/1.1/DTD/svg11.dtd">
<!-- Generated by graphviz version 2.48.0 (0)
 -->
<!-- Pages: 1 -->
<svg width="946pt" height="522pt"
 viewBox="0.00 0.00 946.00 522.48" xmlns="http://www.w3.org/2000/svg" xmlns:xlink="http://www.w3.org/1999/xlink">
<g id="graph0" class="graph" transform="scale(1 1) rotate(0) translate(4 518.48)">
<polygon fill="white" stroke="transparent" points="-4,4 -4,-518.48 942,-518.48 942,4 -4,4"/>
<g id="clust1" class="cluster">
<title>cluster_0</title>
<polygon fill="none" stroke="black" points="8,-253.61 8,-498.98 276,-498.98 276,-253.61 8,-253.61"/>
</g>
<g id="clust2" class="cluster">
<title>cluster_1</title>
<polygon fill="none" stroke="black" points="284,-171.74 284,-314.48 720,-314.48 720,-171.74 284,-171.74"/>
</g>
<g id="clust3" class="cluster">
<title>cluster_2</title>
<polygon fill="none" stroke="black" points="244,-8 244,-150.74 760,-150.74 760,-8 244,-8"/>
</g>
<g id="clust4" class="cluster">
<title>cluster_3</title>
<polygon fill="lightgreen" stroke="black" points="284,-422.48 284,-506.48 930,-506.48 930,-422.48 284,-422.48"/>
</g>
<!-- repo_nvidia_cuda -->
<g id="node1" class="node">
<title>repo_nvidia_cuda</title>
<polygon fill="aqua" stroke="black" points="268,-490.98 265,-494.98 244,-494.98 241,-490.98 88,-490.98 88,-437.98 268,-437.98 268,-490.98"/>
<text text-anchor="middle" x="178" y="-475.78" font-family="Times,serif" font-size="14.00">CUDA packages</text>
<text text-anchor="middle" x="178" y="-460.78" font-family="Times,serif" font-size="14.00">NVIDIA</text>
<text text-anchor="middle" x="178" y="-445.78" font-family="Times,serif" font-size="14.00"> Prio 100</text>
</g>
<!-- cuda -->
<g id="node2" class="node">
<title>cuda</title>
<ellipse fill="red" stroke="black" cx="43" cy="-464.48" rx="27.1" ry="18"/>
<text text-anchor="middle" x="43" y="-460.78" font-family="Times,serif" font-size="14.00">cuda</text>
</g>
<!-- cuda_runtime -->
<g id="node3" class="node">
<title>cuda_runtime</title>
<ellipse fill="red" stroke="black" cx="120" cy="-375.48" rx="58.49" ry="18"/>
<text text-anchor="middle" x="120" y="-371.78" font-family="Times,serif" font-size="14.00">cuda&#45;runtime</text>
</g>
<!-- cuda&#45;&gt;cuda_runtime -->
<g id="edge1" class="edge">
<title>cuda&#45;&gt;cuda_runtime</title>
<path fill="none" stroke="black" d="M56.31,-448.27C63.09,-440.53 71.47,-430.99 79,-422.48 85.22,-415.45 91.98,-407.84 98.2,-400.88"/>
<polygon fill="black" stroke="black" points="101.12,-402.85 105.17,-393.06 95.9,-398.19 101.12,-402.85"/>
</g>
<!-- cuda_other_packages -->
<g id="node4" class="node">
<title>cuda_other_packages</title>
<ellipse fill="lightblue" stroke="black" cx="111" cy="-279.61" rx="87.18" ry="18"/>
<text text-anchor="middle" x="111" y="-275.91" font-family="Times,serif" font-size="14.00">Other Cuda Packages</text>
</g>
<!-- cuda&#45;&gt;cuda_other_packages -->
<g id="edge2" class="edge">
<title>cuda&#45;&gt;cuda_other_packages</title>
<path fill="none" stroke="black" d="M41.81,-446.31C40.94,-424.78 41.5,-387.12 53,-357.48 60.53,-338.07 74.47,-319.35 86.79,-305.24"/>
<polygon fill="black" stroke="black" points="89.68,-307.26 93.8,-297.5 84.49,-302.57 89.68,-307.26"/>
</g>
<!-- cuda_runtime&#45;&gt;cuda_other_packages -->
<g id="edge5" class="edge">
<title>cuda_runtime&#45;&gt;cuda_other_packages</title>
<path fill="none" stroke="black" d="M118.35,-357.26C117.03,-343.5 115.16,-323.95 113.63,-308.04"/>
<polygon fill="black" stroke="black" points="117.08,-307.34 112.64,-297.72 110.11,-308.01 117.08,-307.34"/>
</g>
<!-- nvidia_compute_utils_G06 -->
<g id="node6" class="node">
<title>nvidia_compute_utils_G06</title>
<ellipse fill="yellow" stroke="black" cx="403" cy="-279.61" rx="111.03" ry="26.74"/>
<text text-anchor="middle" x="403" y="-283.41" font-family="Times,serif" font-size="14.00">nvidia&#45;compute&#45;utils&#45;G06</text>
<text text-anchor="middle" x="403" y="-268.41" font-family="Times,serif" font-size="14.00">(Provides:cuda&#45;drivers)</text>
</g>
<!-- cuda_runtime&#45;&gt;nvidia_compute_utils_G06 -->
<g id="edge3" class="edge">
<title>cuda_runtime&#45;&gt;nvidia_compute_utils_G06</title>
<path fill="none" stroke="blue" d="M158.17,-361.82C202,-347.28 274.93,-323.09 329.82,-304.88"/>
<polygon fill="blue" stroke="blue" points="331.11,-308.14 339.5,-301.67 328.91,-301.5 331.11,-308.14"/>
<text text-anchor="middle" x="331" y="-328.28" font-family="Times,serif" font-size="14.00" fill="blue">Requires: cuda&#45;drivers</text>
</g>
<!-- repo_nvidia_gfx -->
<g id="node5" class="node">
<title>repo_nvidia_gfx</title>
<polygon fill="aqua" stroke="black" points="712,-306.11 709,-310.11 688,-310.11 685,-306.11 532,-306.11 532,-253.11 712,-253.11 712,-306.11"/>
<text text-anchor="middle" x="622" y="-290.91" font-family="Times,serif" font-size="14.00">Proprietary:X11:Drivers</text>
<text text-anchor="middle" x="622" y="-275.91" font-family="Times,serif" font-size="14.00">NVIDIA</text>
<text text-anchor="middle" x="622" y="-260.91" font-family="Times,serif" font-size="14.00"> Prio 99</text>
</g>
<!-- nvidia_compute_G06 -->
<g id="node7" class="node">
<title>nvidia_compute_G06</title>
<ellipse fill="yellow" stroke="black" cx="403" cy="-197.74" rx="83.69" ry="18"/>
<text text-anchor="middle" x="403" y="-194.04" font-family="Times,serif" font-size="14.00">nvidia&#45;compute&#45;G06</text>
</g>
<!-- nvidia_compute_utils_G06&#45;&gt;nvidia_compute_G06 -->
<g id="edge4" class="edge">
<title>nvidia_compute_utils_G06&#45;&gt;nvidia_compute_G06</title>
<path fill="none" stroke="black" d="M403,-252.46C403,-244.01 403,-234.63 403,-226.1"/>
<polygon fill="black" stroke="black" points="406.5,-225.89 403,-215.89 399.5,-225.89 406.5,-225.89"/>
</g>
<!-- nvidia_open_driver_G06_signed_kmp -->
<g id="node9" class="node">
<title>nvidia_open_driver_G06_signed_kmp</title>
<ellipse fill="yellow" stroke="black" cx="403" cy="-115.87" rx="151.14" ry="26.74"/>
<text text-anchor="middle" x="403" y="-119.67" font-family="Times,serif" font-size="14.00">nvidia&#45;open&#45;driver&#45;G06&#45;signed&#45;kmp</text>
<text text-anchor="middle" x="403" y="-104.67" font-family="Times,serif" font-size="14.00">(PCI Supplements)</text>
</g>
<!-- nvidia_compute_G06&#45;&gt;nvidia_open_driver_G06_signed_kmp -->
<g id="edge6" class="edge">
<title>nvidia_compute_G06&#45;&gt;nvidia_open_driver_G06_signed_kmp</title>
<path fill="none" stroke="black" d="M403,-179.41C403,-171.68 403,-162.26 403,-153.1"/>
<polygon fill="black" stroke="black" points="406.5,-152.97 403,-142.97 399.5,-152.97 406.5,-152.97"/>
</g>
<!-- repo_obs -->
<g id="node8" class="node">
<title>repo_obs</title>
<polygon fill="aqua" stroke="black" points="752,-142.37 749,-146.37 728,-146.37 725,-142.37 572,-142.37 572,-89.37 752,-89.37 752,-142.37"/>
<text text-anchor="middle" x="662" y="-127.17" font-family="Times,serif" font-size="14.00">X11:Drivers:Video:Redesign</text>
<text text-anchor="middle" x="662" y="-112.17" font-family="Times,serif" font-size="14.00"> openSUSE Build Service</text>
<text text-anchor="middle" x="662" y="-97.17" font-family="Times,serif" font-size="14.00"> Prio 90</text>
</g>
<!-- kernel_firmware_nvidia_gsp_G06 -->
<g id="node10" class="node">
<title>kernel_firmware_nvidia_gsp_G06</title>
<ellipse fill="yellow" stroke="black" cx="403" cy="-34" rx="126.18" ry="18"/>
<text text-anchor="middle" x="403" y="-30.3" font-family="Times,serif" font-size="14.00">kernel&#45;firmware&#45;nvidia&#45;gsp&#45;G06</text>
</g>
<!-- nvidia_open_driver_G06_signed_kmp&#45;&gt;kernel_firmware_nvidia_gsp_G06 -->
<g id="edge7" class="edge">
<title>nvidia_open_driver_G06_signed_kmp&#45;&gt;kernel_firmware_nvidia_gsp_G06</title>
<path fill="none" stroke="black" d="M403,-88.72C403,-80.27 403,-70.89 403,-62.36"/>
<polygon fill="black" stroke="black" points="406.5,-62.15 403,-52.15 399.5,-62.15 406.5,-62.15"/>
</g>
<!-- repo_install -->
<g id="node11" class="node">
<title>repo_install</title>
<polygon fill="green" stroke="black" points="922,-482.48 814,-482.48 814,-478.48 810,-478.48 810,-474.48 814,-474.48 814,-454.48 810,-454.48 810,-450.48 814,-450.48 814,-446.48 922,-446.48 922,-482.48"/>
<polyline fill="none" stroke="black" points="814,-478.48 818,-478.48 818,-474.48 814,-474.48 "/>
<polyline fill="none" stroke="black" points="814,-454.48 818,-454.48 818,-450.48 814,-450.48 "/>
<text text-anchor="middle" x="868" y="-460.78" font-family="Times,serif" font-size="14.00">Installation</text>
</g>
<!-- command1 -->
<g id="node12" class="node">
<title>command1</title>
<text text-anchor="middle" x="544" y="-483.28" font-family="Times,serif" font-size="14.00">zypper ar &#45;p 90 &lt;X11:Drivers:Video:Redesign&gt; X11:Drivers:Video:Redesign</text>
<text text-anchor="middle" x="544" y="-468.28" font-family="Times,serif" font-size="14.00">zypper ar &#45;p 99 &lt;Proprietary:X11:Drivers&gt; Proprietary:X11:Drivers</text>
<text text-anchor="middle" x="544" y="-453.28" font-family="Times,serif" font-size="14.00">zypper ar &#45;p 100 &lt;CUDA packages&gt; CUDA</text>
<text text-anchor="middle" x="544" y="-438.28" font-family="Times,serif" font-size="14.00">zypper in cuda&#45;11&#45;8</text>
</g>
</g>
</svg>
